<svg width="870" height="437" viewBox="0 0 870 437" fill="none" xmlns="http://www.w3.org/2000/svg">
<path d="M840.092 104.148C841.052 112.021 846.484 128.559 839.317 134.313C829.53 142.093 823.859 130.098 820.173 122.374C812.897 107.219 812.159 80.6546 800.847 68.9198C751.59 187.573 660.928 284.306 545.712 341.139C429.69 398.59 282.198 425.051 159.673 370.637C99.7045 344.036 47.5278 301.296 22.0995 239.315C19.9302 234.029 7.94001 208.226 19.7316 207.886C25.8077 207.694 40.9068 240.986 44.5097 246.525C62.8428 274.891 86.5514 299.394 114.298 318.651C210.275 385.45 340.677 385.411 448.285 351.492C520.445 328.395 587.066 290.662 643.984 240.654C673.444 215.239 699.68 186.312 722.108 154.519C740.694 127.855 772.27 84.1759 774.813 50.5016C746.432 58.3535 724.687 94.1248 697.54 106.096C683.132 112.488 665.116 107.304 673.455 89.148C680.198 74.4189 706.316 62.5124 719.186 53.502C733.568 43.3922 748.203 33.8615 763.43 25.1737C774.849 18.7798 795.985 0.527286 809.102 4.05169C832.371 10.303 836.961 83.9742 840.092 104.148C841.096 112.382 838.758 95.7101 840.092 104.148Z" fill="#EDEDFC"/>
</svg>
