<svg width="168" height="45" viewBox="0 0 168 45" fill="none" xmlns="http://www.w3.org/2000/svg">
<path d="M17.1335 17.2148C18.1426 15.2005 20.2025 13.9285 22.4554 13.9285H36.8115C39.2462 13.9285 40.8291 16.4917 39.7385 18.6686L28.194 41.7136C27.1849 43.7279 25.125 44.9999 22.872 44.9999H8.51597C6.08118 44.9999 4.49837 42.4367 5.58891 40.2598L17.1335 17.2148Z" fill="url(#paint0_linear)"/>
<path opacity="0.77" d="M13.9192 3.28632C14.9283 1.27199 16.9882 0 19.2411 0H33.5972C36.0319 0 37.6148 2.56324 36.5242 4.74015L24.9797 27.7851C23.9706 29.7995 21.9107 31.0715 19.6577 31.0715H5.30167C2.86688 31.0715 1.28408 28.5082 2.37461 26.3313L13.9192 3.28632Z" fill="#2075BC"/>
<path opacity="0.77" d="M13.9192 3.28632C14.9283 1.27199 16.9882 0 19.2411 0H33.5972C36.0319 0 37.6148 2.56324 36.5242 4.74015L24.9797 27.7851C23.9706 29.7995 21.9107 31.0715 19.6577 31.0715H5.30167C2.86688 31.0715 1.28408 28.5082 2.37461 26.3313L13.9192 3.28632Z" fill="#2075BC"/>
<path d="M56.5967 27.3809C57.3038 27.6126 57.8646 28.0027 58.2791 28.5513C58.6937 29.0878 58.9009 29.7583 58.9009 30.563C58.9009 31.6724 58.4742 32.5319 57.6208 33.1415C56.7674 33.7389 55.5238 34.0376 53.8901 34.0376H47.5261V21.2363H53.5244C55.0362 21.2363 56.2005 21.535 57.0173 22.1324C57.8341 22.7176 58.2426 23.5284 58.2426 24.5647C58.2426 25.1986 58.0963 25.7595 57.8037 26.2471C57.5111 26.7348 57.1087 27.1127 56.5967 27.3809ZM49.9035 23.1017V26.6312H53.2684C54.0974 26.6312 54.7314 26.4849 55.1703 26.1923C55.6214 25.8875 55.8469 25.4486 55.8469 24.8756C55.8469 24.2904 55.6214 23.8515 55.1703 23.5589C54.7314 23.2541 54.0974 23.1017 53.2684 23.1017H49.9035ZM53.7438 32.1723C55.5848 32.1723 56.5053 31.5566 56.5053 30.3252C56.5053 29.0939 55.5848 28.4782 53.7438 28.4782H49.9035V32.1723H53.7438ZM61.4382 21.2363H63.8155V32.026H70.5088V34.0376H61.4382V21.2363ZM72.3857 21.2363H74.763V34.0376H72.3857V21.2363ZM89.6003 21.2363V34.0376H87.6436L80.5846 25.3693V34.0376H78.2255V21.2363H80.1823L87.2413 29.9046V21.2363H89.6003ZM97.4378 28.6794L95.4079 30.7641V34.0376H93.0305V21.2363H95.4079V27.8016L101.735 21.2363H104.405L99.0288 26.9603L104.735 34.0376H101.955L97.4378 28.6794ZM111.814 34.2205C110.522 34.2205 109.351 33.9401 108.303 33.3792C107.267 32.8062 106.45 32.0199 105.852 31.0202C105.267 30.0204 104.975 28.8927 104.975 27.637C104.975 26.3812 105.273 25.2535 105.871 24.2538C106.468 23.2541 107.285 22.4738 108.321 21.913C109.37 21.34 110.54 21.0535 111.832 21.0535C112.881 21.0535 113.838 21.2363 114.704 21.6021C115.569 21.9678 116.301 22.4982 116.898 23.1931L115.362 24.6378C114.435 23.6381 113.295 23.1382 111.942 23.1382C111.064 23.1382 110.278 23.3333 109.583 23.7234C108.888 24.1014 108.346 24.6317 107.955 25.3145C107.565 25.9972 107.37 26.7714 107.37 27.637C107.37 28.5026 107.565 29.2768 107.955 29.9595C108.346 30.6422 108.888 31.1787 109.583 31.5688C110.278 31.9467 111.064 32.1357 111.942 32.1357C113.295 32.1357 114.435 31.6297 115.362 30.6178L116.898 32.0808C116.301 32.7758 115.563 33.3061 114.685 33.6718C113.82 34.0376 112.863 34.2205 111.814 34.2205ZM127.211 31.075H120.81L119.548 34.0376H117.098L122.858 21.2363H125.199L130.978 34.0376H128.491L127.211 31.075ZM126.424 29.2097L124.01 23.6137L121.615 29.2097H126.424ZM136.574 34.2205C135.587 34.2205 134.63 34.0803 133.703 33.7999C132.789 33.5195 132.063 33.1476 131.527 32.6843L132.35 30.8373C132.874 31.2518 133.514 31.5932 134.27 31.8614C135.038 32.1174 135.806 32.2454 136.574 32.2454C137.525 32.2454 138.232 32.093 138.696 31.7882C139.171 31.4834 139.409 31.0811 139.409 30.5813C139.409 30.2155 139.275 29.9168 139.006 29.6852C138.75 29.4413 138.421 29.2524 138.019 29.1183C137.617 28.9842 137.068 28.8318 136.373 28.6611C135.398 28.4294 134.605 28.1978 133.996 27.9661C133.398 27.7345 132.88 27.3749 132.441 26.8872C132.015 26.3873 131.801 25.7168 131.801 24.8756C131.801 24.1684 131.99 23.5284 132.368 22.9554C132.758 22.3702 133.337 21.9069 134.105 21.5655C134.886 21.2242 135.837 21.0535 136.958 21.0535C137.739 21.0535 138.507 21.151 139.262 21.3461C140.018 21.5411 140.671 21.8215 141.219 22.1873L140.469 24.0343C139.909 23.7052 139.323 23.4552 138.714 23.2845C138.104 23.1139 137.513 23.0285 136.94 23.0285C136.001 23.0285 135.3 23.187 134.837 23.504C134.386 23.821 134.16 24.2416 134.16 24.7658C134.16 25.1316 134.288 25.4303 134.544 25.6619C134.813 25.8936 135.148 26.0764 135.55 26.2105C135.952 26.3447 136.501 26.4971 137.196 26.6677C138.147 26.8872 138.927 27.1188 139.537 27.3627C140.146 27.5943 140.665 27.954 141.091 28.4416C141.53 28.9293 141.75 29.5876 141.75 30.4167C141.75 31.1238 141.555 31.7639 141.164 32.3369C140.786 32.9099 140.207 33.3671 139.427 33.7084C138.647 34.0498 137.696 34.2205 136.574 34.2205ZM155.482 21.2363V34.0376H153.104V28.5513H146.484V34.0376H144.107V21.2363H146.484V26.5214H153.104V21.2363H155.482Z" fill="#226AB4"/>
<defs>
<linearGradient id="paint0_linear" x1="13.8982" y1="15.7197" x2="28.7475" y2="44.6438" gradientUnits="userSpaceOnUse">
<stop stop-color="#2B3C90"/>
<stop offset="0.77" stop-color="#2367B1"/>
<stop offset="1" stop-color="#2075BC"/>
</linearGradient>
</defs>
</svg>
